<?xml version="1.0" encoding="UTF-8"?>
<svg xmlns="http://www.w3.org/2000/svg" xmlns:xlink="http://www.w3.org/1999/xlink" width="26pt" height="25pt" viewBox="0 0 26 25" version="1.1">
<g id="surface1">
<path style="fill:none;stroke-width:1;stroke-linecap:butt;stroke-linejoin:miter;stroke:#FFFFFF;stroke-opacity:1;stroke-miterlimit:4;" d="M 7.374399 24.644375 C 9.537861 26.425 12.264724 27.479375 15.234976 27.479375 C 22.306791 27.479375 28.008413 21.468125 28.008413 14 C 28.008413 6.531875 22.306791 0.520625 15.234976 0.520625 C 10.123798 0.520625 5.503906 3.836875 3.538762 8.505 " transform="matrix(0.866667,0,0,0.892857,0.866667,0)"/>
<path style="fill:none;stroke-width:1;stroke-linecap:square;stroke-linejoin:miter;stroke:#FFFFFF;stroke-opacity:1;stroke-miterlimit:4;" d="M 8.352464 21.258125 C 8.352464 18.97 6.594651 17.110625 4.422175 17.110625 C 2.2497 17.110625 0.491887 18.97 0.491887 21.258125 C 0.491887 23.550625 2.2497 25.405625 4.422175 25.405625 C 6.594651 25.405625 8.352464 23.550625 8.352464 21.258125 Z M 8.352464 21.258125 " transform="matrix(0.866667,0,0,0.892857,0.866667,0)"/>
<path style="fill:none;stroke-width:1;stroke-linecap:square;stroke-linejoin:miter;stroke:#FFFFFF;stroke-opacity:1;stroke-miterlimit:4;" d="M 2.55619 0.520625 L 3.538762 8.505 L 11.10637 7.468125 " transform="matrix(0.866667,0,0,0.892857,0.866667,0)"/>
<path style=" stroke:none;fill-rule:nonzero;fill:#FFFFFF;fill-opacity:1;" d="M 12.671875 15.625 L 11.816406 15.625 L 11.816406 11.339844 L 10.421875 11.339844 L 10.421875 10.695312 C 11.222656 10.675781 11.773438 10.207031 11.90625 9.550781 L 12.671875 9.550781 Z M 13.648438 13.976562 L 14.484375 13.710938 C 14.539062 14.460938 15.0625 14.96875 15.78125 14.96875 C 16.46875 14.96875 17.019531 14.492188 17.019531 13.742188 C 17.019531 12.90625 16.441406 12.484375 15.773438 12.484375 C 15.363281 12.484375 14.972656 12.652344 14.726562 12.925781 C 14.421875 12.804688 14.164062 12.679688 13.871094 12.570312 L 14.617188 9.550781 L 17.660156 9.550781 L 17.660156 10.394531 L 15.195312 10.394531 L 14.769531 12.136719 C 15.027344 11.835938 15.488281 11.6875 15.941406 11.6875 C 17.074219 11.6875 17.898438 12.445312 17.898438 13.703125 C 17.898438 14.847656 17.0625 15.773438 15.78125 15.773438 C 14.554688 15.773438 13.730469 14.929688 13.648438 13.976562 Z M 13.648438 13.976562 "/>
</g>
</svg>
