<?xml version="1.0" encoding="UTF-8"?>
<svg xmlns="http://www.w3.org/2000/svg" xmlns:xlink="http://www.w3.org/1999/xlink" width="25pt" height="25pt" viewBox="0 0 25 25" version="1.1">
<g id="surface1">
<path style="fill:none;stroke-width:1;stroke-linecap:butt;stroke-linejoin:miter;stroke:#FFFFFF;stroke-opacity:1;stroke-miterlimit:4;" d="M 7.375312 24.644375 C 9.536719 26.425 12.264531 27.479375 15.2325 27.479375 C 22.310312 27.479375 28.010625 21.468125 28.010625 14 C 28.010625 6.531875 22.310312 0.520625 15.2325 0.520625 C 10.12125 0.520625 5.503906 3.836875 3.537344 8.505 " transform="matrix(-0.862069,0,0,0.892857,24.568966,0)"/>
<path style="fill:none;stroke-width:1;stroke-linecap:square;stroke-linejoin:miter;stroke:#FFFFFF;stroke-opacity:1;stroke-miterlimit:4;" d="M 8.354062 21.258125 C 8.354062 18.97 6.591406 17.110625 4.420937 17.110625 C 2.250469 17.110625 0.492344 18.97 0.492344 21.258125 C 0.492344 23.550625 2.250469 25.405625 4.420937 25.405625 C 6.591406 25.405625 8.354062 23.550625 8.354062 21.258125 Z M 8.354062 21.258125 " transform="matrix(-0.862069,0,0,0.892857,24.568966,0)"/>
<path style="fill:none;stroke-width:1;stroke-linecap:square;stroke-linejoin:miter;stroke:#FFFFFF;stroke-opacity:1;stroke-miterlimit:4;" d="M 2.554062 0.520625 L 3.537344 8.505 L 11.104531 7.468125 " transform="matrix(-0.862069,0,0,0.892857,24.568966,0)"/>
<path style=" stroke:none;fill-rule:nonzero;fill:#FFFFFF;fill-opacity:1;" d="M 9.777344 15.625 L 8.925781 15.625 L 8.925781 11.339844 L 7.539062 11.339844 L 7.539062 10.695312 C 8.335938 10.675781 8.882812 10.207031 9.015625 9.550781 L 9.777344 9.550781 Z M 10.75 13.976562 L 11.582031 13.710938 C 11.632812 14.460938 12.15625 14.96875 12.871094 14.96875 C 13.550781 14.96875 14.101562 14.492188 14.101562 13.742188 C 14.101562 12.90625 13.527344 12.484375 12.863281 12.484375 C 12.457031 12.484375 12.066406 12.652344 11.820312 12.925781 C 11.519531 12.804688 11.261719 12.679688 10.96875 12.570312 L 11.714844 9.550781 L 14.738281 9.550781 L 14.738281 10.394531 L 12.289062 10.394531 L 11.863281 12.136719 C 12.121094 11.835938 12.578125 11.6875 13.03125 11.6875 C 14.152344 11.6875 14.976562 12.445312 14.976562 13.703125 C 14.976562 14.847656 14.144531 15.773438 12.871094 15.773438 C 11.652344 15.773438 10.828125 14.929688 10.75 13.976562 Z M 10.75 13.976562 "/>
</g>
</svg>
