<?xml version="1.0" encoding="UTF-8"?>
<svg xmlns="http://www.w3.org/2000/svg" xmlns:xlink="http://www.w3.org/1999/xlink" width="60pt" height="60pt" viewBox="0 0 25 25" version="1.1">
<g id="surface1">
<path style=" stroke:none;fill-rule:nonzero;fill:#FFFFFF;fill-opacity:1;" d="M 12.5 0 C 5.625 0 0 5.625 0 12.5 C 0 19.375 5.625 25 12.5 25 C 19.375 25 25 19.375 25 12.5 C 25 5.625 19.375 0 12.5 0 Z M 16.875 13.125 L 10.625 17.8125 C 10.46875 17.890625 10.3125 17.96875 10.15625 17.96875 C 10 17.96875 9.921875 17.96875 9.84375 17.890625 C 9.53125 17.734375 9.375 17.5 9.375 17.1875 L 9.375 7.8125 C 9.375 7.5 9.53125 7.265625 9.84375 7.109375 C 10.078125 6.953125 10.390625 7.03125 10.625 7.1875 L 16.875 11.875 C 17.109375 12.03125 17.1875 12.265625 17.1875 12.5 C 17.1875 12.734375 17.109375 12.96875 16.875 13.125 Z M 16.875 13.125 "/>
</g>
</svg>
