<?xml version="1.0" encoding="UTF-8"?>
<svg xmlns="http://www.w3.org/2000/svg" xmlns:xlink="http://www.w3.org/1999/xlink" width="60pt" height="60pt" viewBox="0 0 25 25" version="1.1">
<g id="surface1">
<path style="fill:none;stroke-width:1;stroke-linecap:butt;stroke-linejoin:miter;stroke:#FFFFFF;stroke-opacity:1;stroke-miterlimit:4;" d="M 34.92 18 C 34.92 27.343125 27.343125 34.92 18 34.92 C 8.656875 34.92 1.08 27.343125 1.08 18 C 1.08 8.656875 8.656875 1.08 18 1.08 C 27.343125 1.08 34.92 8.656875 34.92 18 Z M 34.92 18 " transform="matrix(0.694444,0,0,0.694444,0,0)"/>
<path style="fill-rule:evenodd;fill:#FFFFFF;fill-opacity:1;stroke-width:1;stroke-linecap:butt;stroke-linejoin:miter;stroke:#FFFFFF;stroke-opacity:1;stroke-miterlimit:4;" d="M 13.359375 10.783125 L 14.92875 10.783125 L 14.92875 25.216875 L 13.359375 25.216875 Z M 21.07125 10.783125 L 22.640625 10.783125 L 22.640625 25.216875 L 21.07125 25.216875 Z M 21.07125 10.783125 " transform="matrix(0.694444,0,0,0.694444,0,0)"/>
</g>
</svg>
